<svg width="40" height="40" viewBox="0 0 40 40" fill="none" xmlns="http://www.w3.org/2000/svg"><path d="M10.71 30.11h8.58v-1.44H10.7v1.44zm1.08-13h6.42c.29 0 .54-.1.75-.32a1.05 1.05 0 000-1.52 1.02 1.02 0 00-.75-.33H11.8c-.29 0-.54.11-.75.33a1.04 1.04 0 000 1.52c.21.21.46.32.75.32zm0-3.61h6.42c.29 0 .54-.1.75-.32a1.05 1.05 0 000-1.52 1.02 1.02 0 00-.75-.33H11.8c-.29 0-.54.11-.75.33a1.04 1.04 0 000 1.52c.21.21.46.32.75.32zM25 18.56v-2.9h2.86v-2.88H25v-2.9h2.86c.78 0 1.46.3 2.02.86.55.56.83 1.24.83 2.04h2.86A1.4 1.4 0 0135 14.22a1.4 1.4 0 01-1.43 1.45h-2.86c0 .8-.28 1.47-.83 2.04-.56.56-1.24.85-2.02.85H25zm-5.71 7.22h-2.86v-7.22h5.71V9.89H10.71c-.78 0-1.45.28-2.01.85a2.8 2.8 0 00-.84 2.04v2.89c0 .8.28 1.47.84 2.04.56.56 1.23.85 2.01.85h2.86v7.22h-2.86v-4.34a5.47 5.47 0 01-4.03-1.7A5.6 5.6 0 015 15.68v-2.9A5.6 5.6 0 016.68 8.7 5.47 5.47 0 0110.7 7h11.43c.79 0 1.46.28 2.02.85.56.56.84 1.24.84 2.04v8.67c0 .79-.28 1.47-.84 2.04-.56.56-1.23.84-2.02.84H19.3v4.34zM10 33c-.6 0-1.1-.21-1.52-.63a2.1 2.1 0 01-.62-1.54v-2.89c0-.6.2-1.1.62-1.53.42-.42.92-.63 1.52-.63h10c.6 0 1.1.2 1.52.63.41.42.62.93.62 1.53v2.9c0 .6-.2 1.1-.62 1.53-.42.42-.92.63-1.52.63H10zm9.29-2.89H10.7h8.58z" fill="#4044E9"/></svg>