<svg width="40" height="40" viewBox="0 0 40 40" fill="none" xmlns="http://www.w3.org/2000/svg"><path d="M20 23.33a3.2 3.2 0 01-2.35-.98 3.2 3.2 0 01-.98-2.35c0-.92.32-1.7.98-2.36a3.2 3.2 0 012.35-.97c.92 0 1.7.32 2.36.97.65.66.97 1.44.97 2.36 0 .92-.32 1.7-.97 2.35-.66.66-1.44.98-2.36.98zM20 35c-3.47 0-6.54-1.04-9.2-3.13a14.67 14.67 0 01-5.3-8.04c-.14-.58-.05-1.09.27-1.52.32-.43.76-.64 1.31-.64.4 0 .75.14 1.07.41.32.28.53.61.64 1 .64 2.53 2 4.6 4.09 6.19a11.4 11.4 0 007.12 2.4c3.25 0 6-1.14 8.27-3.4a11.25 11.25 0 003.4-8.27c0-3.25-1.14-6-3.4-8.27A11.25 11.25 0 0020 8.33c-1.92 0-3.7.45-5.38 1.34a12.39 12.39 0 00-4.2 3.66h2.91c.48 0 .87.16 1.2.48.31.32.47.72.47 1.19s-.16.87-.48 1.19c-.32.32-.71.48-1.19.48H6.67a1.6 1.6 0 01-1.19-.48A1.6 1.6 0 015 15V8.33c0-.47.16-.87.48-1.19.32-.31.71-.47 1.19-.47a1.62 1.62 0 011.67 1.67v2.24A14.88 14.88 0 0120 5c2.07 0 4.03.4 5.85 1.19 1.81.79 3.4 1.86 4.75 3.2a15.28 15.28 0 013.2 4.75C34.61 15.96 35 17.93 35 20c0 2.08-.4 4.03-1.19 5.85a15.25 15.25 0 01-7.96 7.96C24.04 34.61 22.09 35 20 35z" fill="#4044E9"/></svg>