<svg width="17" height="20" viewBox="0 0 17 20" fill="none" xmlns="http://www.w3.org/2000/svg">
<path d="M8.72192 10C9.27192 10 9.74292 9.804 10.1349 9.412C10.5263 9.02067 10.7219 8.55 10.7219 8C10.7219 7.45 10.5263 6.979 10.1349 6.587C9.74292 6.19567 9.27192 6 8.72192 6C8.17192 6 7.70126 6.19567 7.30992 6.587C6.91792 6.979 6.72192 7.45 6.72192 8C6.72192 8.55 6.91792 9.02067 7.30992 9.412C7.70126 9.804 8.17192 10 8.72192 10ZM8.72192 17.35C10.7553 15.4833 12.2636 13.7873 13.2469 12.262C14.2303 10.7373 14.7219 9.38333 14.7219 8.2C14.7219 6.38333 14.1426 4.89567 12.9839 3.737C11.8259 2.579 10.4053 2 8.72192 2C7.03859 2 5.61759 2.579 4.45892 3.737C3.30092 4.89567 2.72192 6.38333 2.72192 8.2C2.72192 9.38333 3.21359 10.7373 4.19692 12.262C5.18026 13.7873 6.68859 15.4833 8.72192 17.35ZM8.72192 19.625C8.58859 19.625 8.45526 19.6 8.32192 19.55C8.18859 19.5 8.07192 19.4333 7.97192 19.35C5.53859 17.2 3.72192 15.2043 2.52192 13.363C1.32192 11.521 0.721924 9.8 0.721924 8.2C0.721924 5.7 1.52626 3.70833 3.13492 2.225C4.74292 0.741667 6.60526 0 8.72192 0C10.8386 0 12.7009 0.741667 14.3089 2.225C15.9176 3.70833 16.7219 5.7 16.7219 8.2C16.7219 9.8 16.1219 11.521 14.9219 13.363C13.7219 15.2043 11.9053 17.2 9.47192 19.35C9.37192 19.4333 9.25526 19.5 9.12192 19.55C8.98859 19.6 8.85526 19.625 8.72192 19.625Z" fill="#545454"/>
</svg>
