<svg width="19" height="19" viewBox="0 0 19 19" fill="none" xmlns="http://www.w3.org/2000/svg">
<path d="M11.2219 1.27493C11.2468 1.1796 11.2905 1.09019 11.3505 1.01197C11.4104 0.93374 11.4854 0.868261 11.5709 0.819368C11.6565 0.770474 11.751 0.739148 11.8488 0.727225C11.9466 0.715302 12.0458 0.723023 12.1406 0.749934C13.5387 1.12491 14.8136 1.86114 15.8371 2.88469C16.8607 3.90824 17.5969 5.18308 17.9719 6.58118C17.9988 6.67599 18.0065 6.77521 17.9946 6.87303C17.9827 6.97086 17.9513 7.06532 17.9024 7.15088C17.8535 7.23645 17.7881 7.31139 17.7098 7.37133C17.6316 7.43127 17.5422 7.47499 17.4469 7.49993C17.3829 7.51847 17.3166 7.52793 17.25 7.52806C17.0845 7.52711 16.9239 7.47142 16.7933 7.36967C16.6627 7.26793 16.5695 7.12584 16.5281 6.96556C16.2162 5.82395 15.6121 4.78339 14.7752 3.94657C13.9384 3.10974 12.8979 2.50558 11.7562 2.19368C11.6601 2.16977 11.5697 2.12679 11.4904 2.06729C11.4111 2.00779 11.3446 1.93299 11.2948 1.84732C11.2449 1.76164 11.2128 1.66683 11.2003 1.56852C11.1878 1.4702 11.1951 1.37036 11.2219 1.27493V1.27493ZM10.9781 5.09056C11.6127 5.26427 12.1911 5.60028 12.6563 6.0655C13.1215 6.53072 13.4575 7.10911 13.6312 7.74368C13.6712 7.90476 13.764 8.04777 13.8949 8.14977C14.0258 8.25177 14.1872 8.30685 14.3531 8.30618C14.4167 8.30681 14.48 8.29731 14.5406 8.27806C14.6368 8.25414 14.7272 8.21116 14.8065 8.15166C14.8857 8.09217 14.9523 8.01737 15.0021 7.93169C15.0519 7.84602 15.0841 7.75121 15.0966 7.65289C15.1091 7.55457 15.1018 7.45474 15.075 7.35931C14.8382 6.46822 14.3702 5.65554 13.7182 5.00359C13.0663 4.35164 12.2536 3.88357 11.3625 3.64681C11.2647 3.61117 11.1605 3.59629 11.0566 3.60312C10.9527 3.60994 10.8514 3.63833 10.759 3.68647C10.6667 3.73461 10.5854 3.80144 10.5203 3.88272C10.4553 3.96399 10.4078 4.05793 10.381 4.15855C10.3542 4.25916 10.3487 4.36426 10.3647 4.46713C10.3808 4.57001 10.4181 4.66842 10.4743 4.75609C10.5304 4.84376 10.6042 4.91878 10.691 4.97636C10.7777 5.03395 10.8755 5.07284 10.9781 5.09056V5.09056ZM18.7125 14.1374C18.5467 15.4034 17.9267 16.5661 16.9679 17.4094C16.0092 18.2526 14.7768 18.719 13.5 18.7218C6.05625 18.7218 0 12.6656 0 5.22181C0.00281471 3.94499 0.469194 2.71263 1.31243 1.75386C2.15566 0.795096 3.31837 0.175157 4.58437 0.00930916C4.90711 -0.0264743 5.23284 0.0414738 5.51435 0.2033C5.79586 0.365126 6.01851 0.612416 6.15 0.909309L8.03437 5.30618C8.13212 5.53441 8.17131 5.78344 8.14839 6.03065C8.12547 6.27787 8.04116 6.51544 7.90312 6.72181L6.34687 9.10306C7.05158 10.5332 8.21273 11.6878 9.64687 12.3843L12 10.8187C12.2061 10.6797 12.4443 10.5956 12.692 10.5743C12.9397 10.553 13.1888 10.5951 13.4156 10.6968L17.8125 12.5718C18.1094 12.7033 18.3567 12.9259 18.5185 13.2075C18.6803 13.489 18.7483 13.8147 18.7125 14.1374V14.1374ZM17.2219 13.9499L12.825 12.0749L10.4812 13.6406C10.2656 13.7831 10.0168 13.8675 9.75887 13.8856C9.50098 13.9037 9.2428 13.8548 9.00937 13.7437C7.26276 12.8988 5.84994 11.4926 4.99687 9.74993C4.8844 9.5173 4.83393 9.25955 4.85036 9.00168C4.86678 8.7438 4.94955 8.49454 5.09062 8.27806L6.65625 5.89681L4.77187 1.49993C3.86714 1.61624 3.03582 2.05832 2.43356 2.74341C1.8313 3.42851 1.4994 4.30963 1.5 5.22181C1.50248 8.40365 2.76756 11.4544 5.01746 13.7043C7.26736 15.9542 10.3182 17.2193 13.5 17.2218C14.4122 17.2224 15.2933 16.8905 15.9784 16.2883C16.6635 15.686 17.1056 14.8547 17.2219 13.9499V13.9499Z" fill="#545454"/>
</svg>
