<svg width="40" height="40" viewBox="0 0 40 40" fill="none" xmlns="http://www.w3.org/2000/svg">
<path d="M20.3816 9.40336L21.9016 12.4917L25.3083 12.9834C25.6583 13.0334 25.7966 13.4634 25.5449 13.7084L23.0799 16.1084L23.6633 19.5017C23.6767 19.5799 23.6681 19.6603 23.6382 19.7338C23.6083 19.8073 23.5585 19.871 23.4943 19.9176C23.4302 19.9643 23.3542 19.9921 23.2751 19.9978C23.196 20.0035 23.1168 19.987 23.0466 19.95L19.9999 18.3467L16.9549 19.95C16.8847 19.987 16.8055 20.0035 16.7264 19.9978C16.6473 19.9921 16.5713 19.9643 16.5072 19.9176C16.443 19.871 16.3932 19.8073 16.3633 19.7338C16.3335 19.6603 16.3248 19.5799 16.3383 19.5017L16.9216 16.11L14.4549 13.71C14.3976 13.6547 14.357 13.5843 14.3377 13.507C14.3185 13.4297 14.3214 13.3485 14.346 13.2727C14.3707 13.1969 14.4162 13.1296 14.4773 13.0785C14.5384 13.0273 14.6127 12.9943 14.6916 12.9834L18.0983 12.4917L19.6183 9.40336C19.6532 9.33195 19.7075 9.27179 19.775 9.22971C19.8425 9.18763 19.9204 9.16533 19.9999 9.16533C20.0794 9.16533 20.1574 9.18763 20.2248 9.22971C20.2923 9.27179 20.3466 9.33195 20.3816 9.40336ZM31.6666 15C31.6669 13.0864 31.1964 11.2021 30.2967 9.51316C29.397 7.82423 28.0956 6.38254 26.5073 5.31517C24.919 4.24779 23.0926 3.58749 21.1889 3.39247C19.2852 3.19745 17.3628 3.47369 15.5911 4.19685C13.8194 4.92001 12.2527 6.06788 11.0292 7.5393C9.80576 9.01072 8.96301 10.7605 8.57526 12.6344C8.18751 14.5084 8.26667 16.4489 8.80576 18.285C9.34485 20.1212 10.3273 21.7965 11.6666 23.1634V35.4167L11.6799 35.5917C11.7099 35.8038 11.7938 36.0046 11.9237 36.1749C12.0535 36.3452 12.225 36.4793 12.4216 36.5643C12.6182 36.6493 12.8333 36.6824 13.0464 36.6603C13.2594 36.6383 13.4632 36.5618 13.6383 36.4384L19.9983 31.96L26.3633 36.44L26.5116 36.53C26.7022 36.6277 26.9147 36.6747 27.1288 36.6667C27.3428 36.6586 27.5512 36.5956 27.7339 36.4839C27.9166 36.3721 28.0675 36.2153 28.1722 36.0284C28.2768 35.8415 28.3317 35.6309 28.3316 35.4167L28.3349 23.1634C30.474 20.9851 31.6707 18.053 31.6666 15ZM25.8333 25.1067V33.0084L20.7166 29.4084L20.5499 29.3084C20.3485 29.2093 20.1241 29.1663 19.9004 29.1839C19.6766 29.2015 19.4617 29.2791 19.2783 29.4084L14.1683 33.0084V25.1067C15.9407 26.1316 17.9525 26.6698 19.9999 26.6667C22.1249 26.6667 24.1166 26.1 25.8333 25.1067ZM10.8333 15C10.8333 12.5689 11.799 10.2373 13.5181 8.51822C15.2372 6.79913 17.5688 5.83336 19.9999 5.83336C22.4311 5.83336 24.7626 6.79913 26.4817 8.51822C28.2008 10.2373 29.1666 12.5689 29.1666 15C29.1666 17.4312 28.2008 19.7628 26.4817 21.4818C24.7626 23.2009 22.4311 24.1667 19.9999 24.1667C17.5688 24.1667 15.2372 23.2009 13.5181 21.4818C11.799 19.7628 10.8333 17.4312 10.8333 15Z" fill="#545454"/>
</svg>
