<svg width="75" height="75" viewBox="0 0 75 75" fill="none" xmlns="http://www.w3.org/2000/svg">
<rect width="75" height="75" rx="37.5" fill="#E5ECFF"/>
<path d="M51.0448 44.1827L45.4354 38.5721L29.6592 22.7926C29.1246 22.2579 28.5899 22.521 28.0553 23.06L23.7782 27.338C23.2435 27.8728 23.5108 28.1402 24.3128 28.4075C25.1148 28.6749 25.3821 28.9423 25.3821 31.0813C25.3821 31.616 26.986 32.1508 26.986 32.1508C27.2112 32.2285 27.408 32.3719 27.5509 32.5626C27.6938 32.7532 27.7764 32.9823 27.788 33.2203V34.5572C27.788 34.5572 27.8254 35.3422 29.6592 36.1614C29.8093 36.2384 29.9372 36.3525 30.0308 36.4929C30.1244 36.6333 30.1805 36.7953 30.1938 36.9636C30.1938 39.1026 30.7285 39.3699 30.7285 39.3699L32.3324 40.1721C32.3324 40.1721 32.867 40.4394 32.867 40.7068C32.867 42.3111 32.867 43.1132 33.4017 43.3806C33.4017 43.3806 35.5402 44.187 35.5402 44.7217V47.1281C35.5402 47.6629 36.0749 47.9302 36.6095 47.9302H39.55V48.1976L43.5598 52.2082C43.624 52.2745 43.6956 52.3334 43.7737 52.3836C43.891 52.4565 44.0256 52.4966 44.1636 52.4998C44.3017 52.503 44.438 52.4692 44.5585 52.4018C44.7831 52.281 44.9863 52.1259 45.1595 51.9409L51.0405 46.0586C51.1832 45.9476 51.2988 45.8055 51.3784 45.6432C51.458 45.4809 51.4996 45.3025 51.5 45.1217C51.5004 44.9409 51.4596 44.7623 51.3808 44.5996C51.3019 44.4369 51.187 44.2944 51.0448 44.1827ZM33.2894 38.2577L32.3752 37.802C32.3446 37.5236 32.3303 37.2436 32.3324 36.9636C32.3303 36.5695 32.2503 36.1798 32.0969 35.8169C31.9434 35.454 31.7197 35.1251 31.4385 34.8491C31.1994 34.6056 30.922 34.4029 30.6173 34.2492L29.9265 33.8877V33.2203C29.9267 32.7457 29.8212 32.2769 29.6178 31.8481C29.4143 31.4193 29.118 31.0412 28.7503 30.7412C28.384 30.4286 27.9559 30.1968 27.4939 30.061C27.4765 29.406 27.3396 28.7597 27.0897 28.1541C26.9788 27.9084 26.8368 27.6781 26.6673 27.4685L28.9855 25.1477L42.651 38.8181C41.8643 39.6081 41.096 40.4161 40.3467 41.2416C40.3467 41.2416 39.5404 42.0437 39.5447 42.5784V45.7869H37.6735V44.7174C37.6682 44.1533 37.471 43.6079 37.1142 43.1709C36.9313 42.9455 36.7203 42.7442 36.4866 42.572C36.024 42.2432 35.5288 41.9629 35.0088 41.7357C35.0088 41.6287 35.0003 41.618 35.0003 40.7068C34.9957 40.1481 34.8011 39.6076 34.4485 39.1742C34.2815 38.9692 34.0897 38.7856 33.8775 38.6277C33.6901 38.4889 33.4917 38.3659 33.2841 38.2598L33.2894 38.2577ZM47.6349 46.249L45.3659 48.5163C45.0618 48.7997 44.6597 48.954 44.2441 48.9466C43.8286 48.9393 43.4321 48.7709 43.1383 48.477C42.8444 48.1831 42.6761 47.7865 42.6688 47.3709C42.6614 46.9553 42.8157 46.5531 43.099 46.249L45.3659 43.9806C45.5526 43.7944 45.7822 43.657 46.0345 43.5806C46.2869 43.5042 46.5541 43.4911 46.8127 43.5425C47.0713 43.5939 47.3133 43.7081 47.5173 43.8752C47.7213 44.0422 47.881 44.2569 47.9824 44.5003C48.1042 44.7935 48.1361 45.1161 48.0743 45.4275C48.0124 45.7388 47.8595 46.0247 47.6349 46.249Z" fill="#6079BC"/>
</svg>
