<svg width="75" height="76" viewBox="0 0 75 76" fill="none" xmlns="http://www.w3.org/2000/svg">
<rect y="0.5" width="75" height="75" rx="37.5" fill="#E5ECFF"/>
<path d="M51.5432 30.1698C51.3989 30.025 51.2274 29.9101 51.0386 29.8317C50.8498 29.7533 50.6474 29.7129 50.443 29.7129C50.2386 29.7129 50.0362 29.7533 49.8474 29.8317C49.6586 29.9101 49.4872 30.025 49.3429 30.1698L45.2658 34.2478L41.2535 30.2346L45.3305 26.1566C45.6223 25.8648 45.7862 25.4689 45.7862 25.0562C45.7862 24.6435 45.6223 24.2476 45.3305 23.9558C45.0387 23.664 44.643 23.5 44.2304 23.5C43.8177 23.5 43.422 23.664 43.1302 23.9558L39.0532 28.0338L36.0116 24.9915C35.7198 24.6996 35.324 24.5357 34.9114 24.5357C34.4988 24.5357 34.103 24.6996 33.8112 24.9915C33.5195 25.2833 33.3555 25.6791 33.3555 26.0919C33.3555 26.5046 33.5195 26.9004 33.8112 27.1923L34.2642 27.6454L27.9351 33.9759C26.8713 35.0457 26.2741 36.4932 26.2741 38.0021C26.2741 39.511 26.8713 40.9585 27.9351 42.0283L29.6048 43.6983L23.4568 49.8476C23.312 49.9919 23.1971 50.1634 23.1187 50.3523C23.0404 50.5411 23 50.7435 23 50.948C23 51.1525 23.0404 51.3549 23.1187 51.5437C23.1971 51.7326 23.312 51.9041 23.4568 52.0484C23.7499 52.3378 24.1452 52.5 24.557 52.5C24.9688 52.5 25.364 52.3378 25.6571 52.0484L31.8051 45.8991L33.4747 47.5691C34.5459 48.6301 35.9925 49.2252 37.5 49.2252C39.0075 49.2252 40.4541 48.6301 41.5253 47.5691L47.8544 41.2386L48.3074 41.6917C48.6005 41.981 48.9958 42.1433 49.4076 42.1433C49.8194 42.1433 50.2146 41.981 50.5077 41.6917C50.6525 41.5474 50.7674 41.3759 50.8458 41.187C50.9242 40.9982 50.9646 40.7957 50.9646 40.5913C50.9646 40.3868 50.9242 40.1844 50.8458 39.9955C50.7674 39.8067 50.6525 39.6352 50.5077 39.4909L47.4661 36.4486L51.5432 32.3706C51.688 32.2263 51.8029 32.0548 51.8813 31.866C51.9596 31.6771 52 31.4747 52 31.2702C52 31.0658 51.9596 30.8633 51.8813 30.6745C51.8029 30.4857 51.688 30.3142 51.5432 30.1698ZM39.325 45.3683C39.0857 45.6087 38.8013 45.7994 38.4881 45.9295C38.1749 46.0596 37.8391 46.1266 37.5 46.1266C37.1609 46.1266 36.8251 46.0596 36.5119 45.9295C36.1987 45.7994 35.9143 45.6087 35.675 45.3683L30.1354 39.8275C29.8951 39.5881 29.7045 39.3036 29.5744 38.9904C29.4443 38.6772 29.3773 38.3413 29.3773 38.0021C29.3773 37.6629 29.4443 37.327 29.5744 37.0138C29.7045 36.7006 29.8951 36.4161 30.1354 36.1767L36.4646 29.8462L45.6541 39.0378L39.325 45.3683Z" fill="#6079BC"/>
</svg>
