<svg width="40" height="40" viewBox="0 0 40 40" fill="none" xmlns="http://www.w3.org/2000/svg">
<path d="M39.2656 16.75L35.4218 9.39063C35.1183 8.81132 34.5999 8.374 33.9778 8.17245C33.3556 7.9709 32.6792 8.02118 32.0937 8.3125L28.4531 10.1406H25.8906L20.7343 7.79688C20.1924 7.56054 19.586 7.51644 19.0156 7.67188L11.4062 9.89063L7.9062 8.14063C7.3181 7.85458 6.64173 7.80879 6.02046 8.01297C5.39918 8.21714 4.88183 8.65523 4.57807 9.23438L0.73432 16.5938C0.579778 16.8867 0.485 17.2075 0.455495 17.5374C0.425989 17.8674 0.462343 18.1999 0.562445 18.5156C0.774185 19.1529 1.22906 19.6808 1.82807 19.9844L5.57807 21.8594L14.0156 28.4531C14.2907 28.6717 14.6109 28.8264 14.9531 28.9063L24.0156 31.1719C24.2096 31.2219 24.409 31.2482 24.6093 31.25C25.2757 31.2446 25.914 30.9814 26.3906 30.5156L32.1406 24.7656H32.1562C32.1562 24.75 32.1718 24.75 32.1718 24.7344H32.2031L34.5312 21.9688L38.1718 20.1406C38.4694 19.9956 38.7348 19.7923 38.9523 19.5426C39.1697 19.293 39.3347 19.0022 39.4374 18.6875C39.538 18.3692 39.5745 18.0341 39.545 17.7016C39.5156 17.3691 39.4206 17.0457 39.2656 16.75ZM31.0468 22.1875L25.1093 17.875C24.8927 17.7186 24.6317 17.6358 24.3646 17.6386C24.0974 17.6414 23.8382 17.7297 23.6249 17.8906L21.6249 19.3906C20.9729 19.8704 20.1845 20.1291 19.3749 20.1291C18.5654 20.1291 17.777 19.8704 17.1249 19.3906L16.2812 18.75L22.3906 12.6406H27.9999L32.2499 20.7969L31.0468 22.1875ZM6.79682 10.3906L9.54682 11.7656L5.70307 19.125L2.95307 17.75L6.79682 10.3906ZM24.6093 28.75L15.5624 26.4844L7.8437 20.4531L12.0937 12.2969L19.7031 10.0781L20.9062 10.625L20.6249 10.8594L14.5156 16.9844C14.2601 17.2362 14.0623 17.5404 13.9356 17.8759C13.8089 18.2115 13.7563 18.5705 13.7816 18.9283C13.8068 19.2861 13.9092 19.6342 14.0818 19.9487C14.2543 20.2632 14.4929 20.5365 14.7812 20.75L15.6249 21.3906C16.7088 22.1972 18.0239 22.6329 19.3749 22.6329C20.726 22.6329 22.0411 22.1972 23.1249 21.3906L24.3906 20.4375L29.3281 24.0313L24.6093 28.75ZM37.0468 17.9063L34.2968 19.2969L30.4531 11.9375L33.2031 10.5469L37.0468 17.9063ZM18.7187 33.5625C18.6496 33.8338 18.4925 34.0745 18.2719 34.247C18.0514 34.4194 17.7799 34.5139 17.4999 34.5156C17.3992 34.5153 17.299 34.4995 17.2031 34.4688L12.4843 33.2969C12.1016 33.2002 11.7478 33.0126 11.4531 32.75L7.93745 29.6875C7.81433 29.5808 7.71344 29.4509 7.64053 29.3052C7.56762 29.1595 7.52412 29.0009 7.51251 28.8384C7.5009 28.6759 7.52142 28.5127 7.57288 28.3581C7.62434 28.2035 7.70575 28.0606 7.81245 27.9375C7.91914 27.8144 8.04905 27.7135 8.19474 27.6406C8.34043 27.5677 8.49905 27.5242 8.66156 27.5126C8.82406 27.501 8.98726 27.5215 9.14183 27.5729C9.29641 27.6244 9.43933 27.7058 9.56245 27.8125L13.0937 30.875L17.7968 32.0469C18.1185 32.1282 18.3953 32.3327 18.5677 32.6161C18.7402 32.8996 18.7944 33.2395 18.7187 33.5625Z" fill="#545454"/>
</svg>
