<svg width="40" height="40" viewBox="0 0 40 40" fill="none" xmlns="http://www.w3.org/2000/svg">
<path d="M16.6667 30V29.8217C16.6667 28.4967 15.84 27.3417 14.805 26.515C13.4541 25.4377 12.4715 23.967 11.9932 22.3067C11.5148 20.6463 11.5645 18.8783 12.1352 17.2474C12.7059 15.6165 13.7694 14.2033 15.1786 13.2034C16.5878 12.2036 18.2729 11.6665 20.0008 11.6665C21.7287 11.6665 23.4139 12.2036 24.8231 13.2034C26.2323 14.2033 27.2958 15.6165 27.8665 17.2474C28.4372 18.8783 28.4868 20.6463 28.0085 22.3067C27.5302 23.967 26.5476 25.4377 25.1967 26.515C24.16 27.3433 23.3333 28.4967 23.3333 29.8217V30M16.6667 30V33.3333C16.6667 33.7754 16.8423 34.1993 17.1548 34.5118C17.4674 34.8244 17.8913 35 18.3333 35H21.6667C22.1087 35 22.5326 34.8244 22.8452 34.5118C23.1577 34.1993 23.3333 33.7754 23.3333 33.3333V30M16.6667 30H23.3333M33.3333 20H35M6.66667 20H5M20 6.66667V5M29.4283 10.5717L30.6067 9.39333M10.5733 10.5717L9.39333 9.39333M20 25V21.6667" stroke="#545454" stroke-width="3" stroke-linecap="round" stroke-linejoin="round"/>
</svg>
