<svg width="75" height="75" viewBox="0 0 75 75" fill="none" xmlns="http://www.w3.org/2000/svg">
<rect width="75" height="75" rx="37.5" fill="#E5ECFF"/>
<path d="M37.5 52C34.325 52 31.531 50.9104 29.118 48.7313C26.705 46.5522 25.499 43.6027 25.5 39.8828C25.5 37.5431 26.4 35.0064 28.2 32.2726C30 29.5389 32.725 26.5834 36.375 23.4064C36.525 23.2832 36.7 23.1847 36.9 23.1108C37.1 23.0369 37.3 23 37.5 23C37.7 23 37.9 23.0369 38.1 23.1108C38.3 23.1847 38.475 23.2832 38.625 23.4064C42.275 26.5834 45 29.5389 46.8 32.2726C48.6 35.0064 49.5 37.5431 49.5 39.8828C49.5 43.6017 48.2935 46.5512 45.8805 48.7313C43.4675 50.9114 40.674 52.001 37.5 52ZM37.5 49.0446C40.025 49.0446 42.1565 48.1949 43.8945 46.4955C45.6325 44.7962 46.501 42.5919 46.5 39.8828C46.5 38.1342 45.7625 36.1329 44.2875 33.8789C42.8125 31.6249 40.55 29.1192 37.5 26.3618C34.45 29.1202 32.1875 31.6264 30.7125 33.8804C29.2375 36.1344 28.5 38.1352 28.5 39.8828C28.5 42.5919 29.369 44.7962 31.107 46.4955C32.845 48.1949 34.976 49.0446 37.5 49.0446ZM37.9125 47.5669C38.2125 47.5423 38.469 47.4255 38.682 47.2167C38.895 47.0078 39.001 46.7551 39 46.4586C39 46.1138 38.8875 45.837 38.6625 45.6281C38.4375 45.4193 38.15 45.3267 37.8 45.3503C36.775 45.4242 35.6875 45.1474 34.5375 44.5198C33.3875 43.8923 32.6625 42.753 32.3625 41.1019C32.3125 40.831 32.1815 40.6093 31.9695 40.4369C31.7575 40.2645 31.5135 40.1783 31.2375 40.1783C30.8875 40.1783 30.6 40.3079 30.375 40.567C30.15 40.8261 30.075 41.1275 30.15 41.4713C30.575 43.7125 31.575 45.3134 33.15 46.2739C34.725 47.2344 36.3125 47.6654 37.9125 47.5669Z" fill="#6079BC"/>
</svg>
