<svg width="40" height="40" viewBox="0 0 40 40" fill="none" xmlns="http://www.w3.org/2000/svg">
<path d="M6.66675 13.3334V10C6.66675 9.11597 7.01794 8.26812 7.64306 7.643C8.26818 7.01788 9.11603 6.66669 10.0001 6.66669H13.3334M6.66675 26.6667V30C6.66675 30.8841 7.01794 31.7319 7.64306 32.357C8.26818 32.9822 9.11603 33.3334 10.0001 33.3334H13.3334M26.6667 6.66669H30.0001C30.8841 6.66669 31.732 7.01788 32.3571 7.643C32.9822 8.26812 33.3334 9.11597 33.3334 10V13.3334M26.6667 33.3334H30.0001C30.8841 33.3334 31.732 32.9822 32.3571 32.357C32.9822 31.7319 33.3334 30.8841 33.3334 30V26.6667M20.0001 20H19.9834M11.6667 20C17.2217 12.2217 22.7784 12.2217 28.3334 20C22.7784 27.7784 17.2217 27.7784 11.6667 20Z" stroke="#545454" stroke-width="3" stroke-linecap="round" stroke-linejoin="round"/>
</svg>
