<svg width="75" height="76" viewBox="0 0 75 76" fill="none" xmlns="http://www.w3.org/2000/svg">
<rect y="0.5" width="75" height="75" rx="37.5" fill="#E5ECFF"/>
<path d="M27 24H48C48.9283 24 49.8185 24.3687 50.4749 25.0251C51.1313 25.6815 51.5 26.5717 51.5 27.5V48.5C51.5 49.4283 51.1313 50.3185 50.4749 50.9749C49.8185 51.6313 48.9283 52 48 52H27C26.0717 52 25.1815 51.6313 24.5251 50.9749C23.8687 50.3185 23.5 49.4283 23.5 48.5V27.5C23.5 26.5717 23.8687 25.6815 24.5251 25.0251C25.1815 24.3687 26.0717 24 27 24ZM39.25 39.75V48.5H48V39.75H39.25ZM27 39.75V48.5H35.75V39.75H27ZM39.25 27.5V36.25H48V27.5H39.25ZM27 27.5V36.25H35.75V27.5H27Z" fill="#6079BC"/>
</svg>
