<svg width="30" height="30" viewBox="0 0 30 30" fill="none" xmlns="http://www.w3.org/2000/svg">
<path d="M1.66675 8.33329V4.99996C1.66675 4.1159 2.01794 3.26806 2.64306 2.64294C3.26818 2.01782 4.11603 1.66663 5.00008 1.66663H8.33341M1.66675 21.6666V25C1.66675 25.884 2.01794 26.7319 2.64306 27.357C3.26818 27.9821 4.11603 28.3333 5.00008 28.3333H8.33341M21.6667 1.66663H25.0001C25.8841 1.66663 26.732 2.01782 27.3571 2.64294C27.9822 3.26806 28.3334 4.1159 28.3334 4.99996V8.33329M21.6667 28.3333H25.0001C25.8841 28.3333 26.732 27.9821 27.3571 27.357C27.9822 26.7319 28.3334 25.884 28.3334 25V21.6666M15.0001 15H14.9834M6.66675 15C12.2217 7.22163 17.7784 7.22163 23.3334 15C17.7784 22.7783 12.2217 22.7783 6.66675 15Z" stroke="#545454" stroke-width="3" stroke-linecap="round" stroke-linejoin="round"/>
</svg>
