<svg width="36" height="36" viewBox="0 0 36 36" fill="none" xmlns="http://www.w3.org/2000/svg">
<path d="M28.4997 3H13.4997C11.8452 3 10.4997 4.3455 10.4997 6V14.379L3.43918 21.4395C3.22947 21.6493 3.08666 21.9165 3.02881 22.2075C2.97095 22.4984 3.00066 22.7999 3.11416 23.074C3.22767 23.348 3.41988 23.5823 3.66649 23.7471C3.91311 23.9119 4.20305 23.9999 4.49968 24V31.5C4.49968 31.8978 4.65772 32.2794 4.93902 32.5607C5.22032 32.842 5.60186 33 5.99968 33H29.9997C30.3975 33 30.779 32.842 31.0603 32.5607C31.3416 32.2794 31.4997 31.8978 31.4997 31.5V6C31.4997 4.3455 30.1542 3 28.4997 3ZM16.4997 30H7.49968V21.621L11.9997 17.121L16.4997 21.621V30ZM28.4997 30H19.4997V24C19.7966 24.0007 20.0871 23.9131 20.3342 23.7484C20.5812 23.5837 20.7738 23.3493 20.8874 23.0749C21.0011 22.8006 21.0306 22.4986 20.9724 22.2075C20.9141 21.9163 20.7706 21.649 20.5602 21.4395L13.4997 14.379V6H28.4997V30Z" fill="#CD4055"/>
<path d="M16.5 9H19.5V12H16.5V9ZM22.5 9H25.5V12H22.5V9ZM22.5 15.0465H25.5V18H22.5V15.0465ZM22.5 21H25.5V24H22.5V21ZM10.5 22.5H13.5V25.5H10.5V22.5Z" fill="#CD4055"/>
</svg>
