<svg width="24" height="34" viewBox="0 0 24 34" fill="none" xmlns="http://www.w3.org/2000/svg">
<path d="M12.3816 6.4033L13.9016 9.49163L17.3083 9.9833C17.6583 10.0333 17.7966 10.4633 17.5449 10.7083L15.0799 13.1083L15.6633 16.5016C15.6767 16.5798 15.6681 16.6602 15.6382 16.7337C15.6083 16.8072 15.5585 16.8709 15.4943 16.9176C15.4302 16.9642 15.3542 16.992 15.2751 16.9977C15.196 17.0034 15.1168 16.9869 15.0466 16.95L11.9999 15.3466L8.95492 16.95C8.8847 16.9869 8.80555 17.0034 8.72641 16.9977C8.64728 16.992 8.57133 16.9642 8.50716 16.9176C8.44299 16.8709 8.39316 16.8072 8.36331 16.7337C8.33345 16.6602 8.32478 16.5798 8.33825 16.5016L8.92159 13.11L6.45492 10.71C6.3976 10.6546 6.35699 10.5843 6.33774 10.5069C6.31848 10.4296 6.32136 10.3484 6.34604 10.2726C6.37072 10.1969 6.4162 10.1296 6.4773 10.0784C6.5384 10.0272 6.61266 9.99428 6.69159 9.9833L10.0983 9.49163L11.6183 6.4033C11.6532 6.33189 11.7075 6.27173 11.775 6.22965C11.8425 6.18757 11.9204 6.16527 11.9999 6.16527C12.0794 6.16527 12.1574 6.18757 12.2248 6.22965C12.2923 6.27173 12.3466 6.33189 12.3816 6.4033ZM23.6666 12C23.6669 10.0863 23.1964 8.20202 22.2967 6.5131C21.397 4.82417 20.0956 3.38248 18.5073 2.31511C16.919 1.24773 15.0926 0.587432 13.1889 0.392411C11.2852 0.19739 9.36281 0.473632 7.59109 1.19679C5.81936 1.91995 4.25272 3.06782 3.02924 4.53924C1.80576 6.01066 0.963011 7.76044 0.575262 9.63437C0.187512 11.5083 0.266672 13.4488 0.805763 15.285C1.34485 17.1211 2.32733 18.7964 3.66659 20.1633V32.4166L3.67992 32.5916C3.70986 32.8037 3.79379 33.0046 3.92366 33.1749C4.05354 33.3452 4.225 33.4793 4.4216 33.5643C4.6182 33.6493 4.83334 33.6823 5.04639 33.6603C5.25943 33.6382 5.46324 33.5618 5.63825 33.4383L11.9983 28.96L18.3633 33.44L18.5116 33.53C18.7022 33.6276 18.9147 33.6747 19.1288 33.6666C19.3428 33.6585 19.5512 33.5956 19.7339 33.4838C19.9166 33.372 20.0675 33.2152 20.1722 33.0283C20.2768 32.8415 20.3317 32.6308 20.3316 32.4166L20.3349 20.1633C22.474 17.9851 23.6707 15.0529 23.6666 12ZM17.8333 22.1066V30.0083L12.7166 26.4083L12.5499 26.3083C12.3485 26.2093 12.1241 26.1663 11.9004 26.1839C11.6766 26.2015 11.4617 26.279 11.2783 26.4083L6.16825 30.0083V22.1066C7.94067 23.1315 9.95251 23.6697 11.9999 23.6666C14.1249 23.6666 16.1166 23.1 17.8333 22.1066ZM2.83325 12C2.83325 9.56882 3.79902 7.23724 5.51811 5.51816C7.23719 3.79907 9.56877 2.8333 11.9999 2.8333C14.4311 2.8333 16.7626 3.79907 18.4817 5.51816C20.2008 7.23724 21.1666 9.56882 21.1666 12C21.1666 14.4311 20.2008 16.7627 18.4817 18.4818C16.7626 20.2009 14.4311 21.1666 11.9999 21.1666C9.56877 21.1666 7.23719 20.2009 5.51811 18.4818C3.79902 16.7627 2.83325 14.4311 2.83325 12Z" fill="#545454"/>
</svg>
