<svg width="24" height="30" viewBox="0 0 24 30" fill="none" xmlns="http://www.w3.org/2000/svg">
<path d="M20 0H9.33333C8.27247 0 7.25505 0.431005 6.50491 1.1982C5.75476 1.96539 5.33333 3.00593 5.33333 4.09091H4C2.93913 4.09091 1.92172 4.52191 1.17157 5.28911C0.421427 6.0563 0 7.09684 0 8.18182V12.2727C0 13.3577 0.421427 14.3982 1.17157 15.1654C1.92172 15.9326 2.93913 16.3636 4 16.3636H12C12.3536 16.3636 12.6928 16.5073 12.9428 16.763C13.1929 17.0188 13.3333 17.3656 13.3333 17.7273V19.0909C12.6261 19.0909 11.9478 19.3782 11.4477 19.8897C10.9476 20.4012 10.6667 21.0949 10.6667 21.8182V27.2727C10.6667 27.996 10.9476 28.6897 11.4477 29.2012C11.9478 29.7127 12.6261 30 13.3333 30H16C16.7072 30 17.3855 29.7127 17.8856 29.2012C18.3857 28.6897 18.6667 27.996 18.6667 27.2727V21.8182C18.6667 21.0949 18.3857 20.4012 17.8856 19.8897C17.3855 19.3782 16.7072 19.0909 16 19.0909V17.7273C16 16.6423 15.5786 15.6018 14.8284 14.8346C14.0783 14.0674 13.0609 13.6364 12 13.6364H4C3.64638 13.6364 3.30724 13.4927 3.05719 13.237C2.80714 12.9812 2.66667 12.6344 2.66667 12.2727V8.18182C2.66667 7.82016 2.80714 7.47331 3.05719 7.21758C3.30724 6.96185 3.64638 6.81818 4 6.81818H5.33333C5.33333 7.90316 5.75476 8.9437 6.50491 9.71089C7.25505 10.4781 8.27247 10.9091 9.33333 10.9091H20C21.0609 10.9091 22.0783 10.4781 22.8284 9.71089C23.5786 8.9437 24 7.90316 24 6.81818V4.09091C24 3.00593 23.5786 1.96539 22.8284 1.1982C22.0783 0.431005 21.0609 0 20 0ZM16 21.8182V27.2727H13.3333V21.8182H16ZM21.3333 6.81818C21.3333 7.17984 21.1929 7.52669 20.9428 7.78242C20.6928 8.03815 20.3536 8.18182 20 8.18182H9.33333C8.97971 8.18182 8.64057 8.03815 8.39052 7.78242C8.14048 7.52669 8 7.17984 8 6.81818V4.09091C8 3.72925 8.14048 3.3824 8.39052 3.12667C8.64057 2.87094 8.97971 2.72727 9.33333 2.72727H20C20.3536 2.72727 20.6928 2.87094 20.9428 3.12667C21.1929 3.3824 21.3333 3.72925 21.3333 4.09091V6.81818Z" fill="#CD4055"/>
</svg>
