<svg width="30" height="26" viewBox="0 0 30 26" fill="none" xmlns="http://www.w3.org/2000/svg">
<path d="M5.71429 23.1111H14.2857V21.6667H5.71429V23.1111ZM6.78571 10.1111H13.2143C13.5 10.1111 13.75 10.0028 13.9643 9.78611C14.1786 9.56944 14.2857 9.31667 14.2857 9.02778C14.2857 8.73889 14.1786 8.48611 13.9643 8.26944C13.75 8.05278 13.5 7.94444 13.2143 7.94444H6.78571C6.5 7.94444 6.25 8.05278 6.03571 8.26944C5.82143 8.48611 5.71429 8.73889 5.71429 9.02778C5.71429 9.31667 5.82143 9.56944 6.03571 9.78611C6.25 10.0028 6.5 10.1111 6.78571 10.1111ZM6.78571 6.5H13.2143C13.5 6.5 13.75 6.39167 13.9643 6.175C14.1786 5.95833 14.2857 5.70556 14.2857 5.41667C14.2857 5.12778 14.1786 4.875 13.9643 4.65833C13.75 4.44167 13.5 4.33333 13.2143 4.33333H6.78571C6.5 4.33333 6.25 4.44167 6.03571 4.65833C5.82143 4.875 5.71429 5.12778 5.71429 5.41667C5.71429 5.70556 5.82143 5.95833 6.03571 6.175C6.25 6.39167 6.5 6.5 6.78571 6.5ZM20 11.5556V8.66667H22.8571V5.77778H20V2.88889H22.8571C23.6429 2.88889 24.3157 3.172 24.8757 3.73822C25.4348 4.30348 25.7143 4.98333 25.7143 5.77778H28.5714C28.9762 5.77778 29.3152 5.91596 29.5886 6.19233C29.8629 6.46967 30 6.81296 30 7.22222C30 7.63148 29.8629 7.9743 29.5886 8.25067C29.3152 8.528 28.9762 8.66667 28.5714 8.66667H25.7143C25.7143 9.46111 25.4348 10.141 24.8757 10.7062C24.3157 11.2724 23.6429 11.5556 22.8571 11.5556H20ZM14.2857 18.7778H11.4286V11.5556H17.1429V2.88889H5.71429C4.92857 2.88889 4.25619 3.172 3.69714 3.73822C3.13714 4.30348 2.85714 4.98333 2.85714 5.77778V8.66667C2.85714 9.46111 3.13714 10.141 3.69714 10.7062C4.25619 11.2724 4.92857 11.5556 5.71429 11.5556H8.57143V18.7778H5.71429V14.4444C4.14286 14.4444 2.79762 13.8787 1.67857 12.7472C0.559524 11.6157 0 10.2556 0 8.66667V5.77778C0 4.18889 0.559524 2.8287 1.67857 1.69722C2.79762 0.565741 4.14286 0 5.71429 0H17.1429C17.9286 0 18.6014 0.282629 19.1614 0.847889C19.7205 1.41411 20 2.09444 20 2.88889V11.5556C20 12.35 19.7205 13.0299 19.1614 13.5951C18.6014 14.1613 17.9286 14.4444 17.1429 14.4444H14.2857V18.7778ZM5 26C4.40476 26 3.89905 25.7891 3.48286 25.3673C3.06571 24.9465 2.85714 24.4352 2.85714 23.8333V20.9444C2.85714 20.3426 3.06571 19.8313 3.48286 19.4104C3.89905 18.9887 4.40476 18.7778 5 18.7778H15C15.5952 18.7778 16.101 18.9887 16.5171 19.4104C16.9343 19.8313 17.1429 20.3426 17.1429 20.9444V23.8333C17.1429 24.4352 16.9343 24.9465 16.5171 25.3673C16.101 25.7891 15.5952 26 15 26H5ZM14.2857 23.1111H5.71429H14.2857Z" fill="#CD4055"/>
</svg>
