<svg width="30" height="30" viewBox="0 0 30 30" fill="none" xmlns="http://www.w3.org/2000/svg">
<path d="M15 18.3333C14.0833 18.3333 13.2989 18.0067 12.6467 17.3533C11.9933 16.7011 11.6667 15.9167 11.6667 15C11.6667 14.0833 11.9933 13.2983 12.6467 12.645C13.2989 11.9928 14.0833 11.6667 15 11.6667C15.9167 11.6667 16.7017 11.9928 17.355 12.645C18.0072 13.2983 18.3333 14.0833 18.3333 15C18.3333 15.9167 18.0072 16.7011 17.355 17.3533C16.7017 18.0067 15.9167 18.3333 15 18.3333ZM15 30C11.5278 30 8.45833 28.9583 5.79167 26.875C3.125 24.7917 1.36111 22.1111 0.5 18.8333C0.361111 18.25 0.451667 17.7428 0.771667 17.3117C1.09056 16.8817 1.52778 16.6667 2.08333 16.6667C2.47222 16.6667 2.82667 16.8056 3.14667 17.0833C3.46556 17.3611 3.68056 17.6944 3.79167 18.0833C4.43056 20.6111 5.79167 22.6733 7.875 24.27C9.95833 25.8678 12.3333 26.6667 15 26.6667C18.25 26.6667 21.0067 25.5344 23.27 23.27C25.5344 21.0067 26.6667 18.25 26.6667 15C26.6667 11.75 25.5344 8.99278 23.27 6.72833C21.0067 4.465 18.25 3.33333 15 3.33333C13.0833 3.33333 11.2917 3.77778 9.625 4.66667C7.95833 5.55556 6.55556 6.77778 5.41667 8.33333H8.33333C8.80556 8.33333 9.20167 8.49278 9.52167 8.81167C9.84056 9.13167 10 9.52778 10 10C10 10.4722 9.84056 10.8678 9.52167 11.1867C9.20167 11.5067 8.80556 11.6667 8.33333 11.6667H1.66667C1.19444 11.6667 0.798889 11.5067 0.48 11.1867C0.16 10.8678 0 10.4722 0 10V3.33333C0 2.86111 0.16 2.465 0.48 2.145C0.798889 1.82611 1.19444 1.66667 1.66667 1.66667C2.13889 1.66667 2.535 1.82611 2.855 2.145C3.17389 2.465 3.33333 2.86111 3.33333 3.33333V5.58333C4.75 3.80556 6.47944 2.43056 8.52167 1.45833C10.5628 0.486111 12.7222 0 15 0C17.0833 0 19.035 0.395555 20.855 1.18667C22.6739 1.97889 24.2572 3.04833 25.605 4.395C26.9517 5.74278 28.0211 7.32611 28.8133 9.145C29.6044 10.965 30 12.9167 30 15C30 17.0833 29.6044 19.0344 28.8133 20.8533C28.0211 22.6733 26.9517 24.2567 25.605 25.6033C24.2572 26.9511 22.6739 28.0211 20.855 28.8133C19.035 29.6044 17.0833 30 15 30Z" fill="#CD4055"/>
</svg>
