<svg width="40" height="28" viewBox="0 0 40 28" fill="none" xmlns="http://www.w3.org/2000/svg">
<path d="M39.2656 9.74994L35.4218 2.39056C35.1183 1.81125 34.5999 1.37393 33.9778 1.17239C33.3556 0.970844 32.6792 1.02112 32.0937 1.31244L28.4531 3.14056H25.8906L20.7343 0.796815C20.1924 0.56048 19.586 0.516378 19.0156 0.671814L11.4062 2.89056L7.9062 1.14056C7.3181 0.854518 6.64173 0.808731 6.02046 1.01291C5.39918 1.21708 4.88183 1.65517 4.57807 2.23431L0.73432 9.59369C0.579778 9.88667 0.485 10.2074 0.455495 10.5374C0.425989 10.8673 0.462343 11.1998 0.562445 11.5156C0.774185 12.1529 1.22906 12.6807 1.82807 12.9843L5.57807 14.8593L14.0156 21.4531C14.2907 21.6716 14.6109 21.8264 14.9531 21.9062L24.0156 24.1718C24.2096 24.2219 24.409 24.2481 24.6093 24.2499C25.2757 24.2445 25.914 23.9814 26.3906 23.5156L32.1406 17.7656H32.1562C32.1562 17.7499 32.1718 17.7499 32.1718 17.7343H32.2031L34.5312 14.9687L38.1718 13.1406C38.4694 12.9956 38.7348 12.7922 38.9523 12.5426C39.1697 12.293 39.3347 12.0021 39.4374 11.6874C39.538 11.3691 39.5745 11.034 39.545 10.7015C39.5155 10.369 39.4206 10.0456 39.2656 9.74994ZM31.0468 15.1874L25.1093 10.8749C24.8927 10.7186 24.6317 10.6357 24.3646 10.6385C24.0974 10.6414 23.8382 10.7297 23.6249 10.8906L21.6249 12.3906C20.9729 12.8703 20.1845 13.129 19.3749 13.129C18.5654 13.129 17.777 12.8703 17.1249 12.3906L16.2812 11.7499L22.3906 5.64056H27.9999L32.2499 13.7968L31.0468 15.1874ZM6.79682 3.39056L9.54682 4.76556L5.70307 12.1249L2.95307 10.7499L6.79682 3.39056ZM24.6093 21.7499L15.5624 19.4843L7.8437 13.4531L12.0937 5.29681L19.7031 3.07806L20.9062 3.62494L20.6249 3.85931L14.5156 9.98431C14.2601 10.2361 14.0623 10.5403 13.9356 10.8759C13.8089 11.2114 13.7563 11.5705 13.7816 11.9283C13.8068 12.2861 13.9092 12.6342 14.0818 12.9486C14.2543 13.2631 14.4929 13.5365 14.7812 13.7499L15.6249 14.3906C16.7088 15.1972 18.0239 15.6328 19.3749 15.6328C20.726 15.6328 22.0411 15.1972 23.1249 14.3906L24.3906 13.4374L29.3281 17.0312L24.6093 21.7499ZM37.0468 10.9062L34.2968 12.2968L30.4531 4.93744L33.2031 3.54681L37.0468 10.9062ZM18.7187 26.5624C18.6496 26.8337 18.4925 27.0745 18.2719 27.2469C18.0514 27.4194 17.7799 27.5139 17.4999 27.5156C17.3992 27.5152 17.299 27.4994 17.2031 27.4687L12.4843 26.2968C12.1016 26.2002 11.7478 26.0126 11.4531 25.7499L7.93745 22.6874C7.81433 22.5807 7.71344 22.4508 7.64053 22.3052C7.56762 22.1595 7.52412 22.0008 7.51251 21.8383C7.5009 21.6758 7.52142 21.5126 7.57288 21.3581C7.62434 21.2035 7.70575 21.0606 7.81245 20.9374C7.91915 20.8143 8.04905 20.7134 8.19474 20.6405C8.34043 20.5676 8.49905 20.5241 8.66156 20.5125C8.82406 20.5009 8.98726 20.5214 9.14183 20.5729C9.29641 20.6243 9.43933 20.7057 9.56245 20.8124L13.0937 23.8749L17.7968 25.0468C18.1185 25.1282 18.3953 25.3326 18.5677 25.6161C18.7402 25.8996 18.7944 26.2394 18.7187 26.5624Z" fill="#545454"/>
</svg>
