<svg width="34" height="34" viewBox="0 0 34 34" fill="none" xmlns="http://www.w3.org/2000/svg">
<path d="M13.6667 27V26.8217C13.6667 25.4967 12.84 24.3417 11.805 23.515C10.4541 22.4377 9.47149 20.967 8.99317 19.3067C8.51484 17.6463 8.56446 15.8783 9.13516 14.2474C9.70585 12.6165 10.7694 11.2033 12.1786 10.2034C13.5878 9.20358 15.2729 8.66647 17.0008 8.66647C18.7287 8.66647 20.4139 9.20358 21.8231 10.2034C23.2323 11.2033 24.2958 12.6165 24.8665 14.2474C25.4372 15.8783 25.4868 17.6463 25.0085 19.3067C24.5302 20.967 23.5476 22.4377 22.1967 23.515C21.16 24.3433 20.3333 25.4967 20.3333 26.8217V27M13.6667 27V30.3333C13.6667 30.7754 13.8423 31.1993 14.1548 31.5118C14.4674 31.8244 14.8913 32 15.3333 32H18.6667C19.1087 32 19.5326 31.8244 19.8452 31.5118C20.1577 31.1993 20.3333 30.7754 20.3333 30.3333V27M13.6667 27H20.3333M30.3333 17H32M3.66667 17H2M17 3.66667V2M26.4283 7.57167L27.6067 6.39333M7.57333 7.57167L6.39333 6.39333M17 22V18.6667" stroke="#545454" stroke-width="3" stroke-linecap="round" stroke-linejoin="round"/>
</svg>
